<svg width="18" height="18" viewBox="0 0 18 18" fill="none" xmlns="http://www.w3.org/2000/svg">
<path fill-rule="evenodd" clip-rule="evenodd" d="M4 0.5C5.86384 0.5 7.42994 1.77477 7.87398 3.5H16V5.5H7.87398C7.42994 7.22523 5.86384 8.5 4 8.5C1.79086 8.5 0 6.70914 0 4.5C0 2.29086 1.79086 0.5 4 0.5ZM4 6.5C5.10457 6.5 6 5.60457 6 4.5C6 3.39543 5.10457 2.5 4 2.5C2.89543 2.5 2 3.39543 2 4.5C2 5.60457 2.89543 6.5 4 6.5Z" fill="#242424"/>
<path fill-rule="evenodd" clip-rule="evenodd" d="M14 17.5C12.1362 17.5 10.5701 16.2252 10.126 14.5H2V12.5H10.126C10.5701 10.7748 12.1362 9.5 14 9.5C16.2091 9.5 18 11.2909 18 13.5C18 15.7091 16.2091 17.5 14 17.5ZM14 15.5C15.1046 15.5 16 14.6046 16 13.5C16 12.3954 15.1046 11.5 14 11.5C12.8954 11.5 12 12.3954 12 13.5C12 14.6046 12.8954 15.5 14 15.5Z" fill="#242424"/>
</svg>
