<svg width="24" height="24" viewBox="0 0 24 24" fill="none" xmlns="http://www.w3.org/2000/svg">
<path fill-rule="evenodd" clip-rule="evenodd" d="M6 6.4C6 5.07452 7.01102 4 8.25818 4H15.7855C17.0326 4 18.0436 5.07452 18.0436 6.4V19.2C18.0436 19.4773 17.9086 19.7348 17.6866 19.8805C17.4647 20.0263 17.1876 20.0395 16.9543 19.9155L12.0218 17.2944L7.08936 19.9155C6.85602 20.0395 6.57891 20.0263 6.357 19.8805C6.13508 19.7348 6 19.4773 6 19.2V6.4ZM8.25818 5.6C7.84246 5.6 7.50545 5.95817 7.50545 6.4V17.9056L11.6852 15.6845C11.8971 15.5718 12.1465 15.5718 12.3584 15.6845L16.5382 17.9056V6.4C16.5382 5.95817 16.2012 5.6 15.7855 5.6H8.25818Z" fill="black"/>
</svg>
