<svg width="20" height="20" viewBox="0 0 20 20" fill="none" xmlns="http://www.w3.org/2000/svg">
<path fill-rule="evenodd" clip-rule="evenodd" d="M1 4C1 2.34315 2.20883 1 3.7 1H16.3C17.7912 1 19 2.34315 19 4V16C19 17.6569 17.7912 19 16.3 19H3.7C2.20883 19 1 17.6569 1 16V4ZM3.7 3C3.20294 3 2.8 3.44772 2.8 4V16C2.8 16.5523 3.20294 17 3.7 17H16.3C16.7971 17 17.2 16.5523 17.2 16V4C17.2 3.44772 16.7971 3 16.3 3H3.7ZM5.7636 6.29289C6.11508 5.90237 6.68493 5.90237 7.0364 6.29289L9.7364 9.29289C10.0879 9.68342 10.0879 10.3166 9.7364 10.7071L7.0364 13.7071C6.68493 14.0976 6.11508 14.0976 5.7636 13.7071C5.41213 13.3166 5.41213 12.6834 5.7636 12.2929L7.82721 10L5.7636 7.70711C5.41213 7.31658 5.41213 6.68342 5.7636 6.29289ZM10 13C10 12.4477 10.4029 12 10.9 12H13.6C14.0971 12 14.5 12.4477 14.5 13C14.5 13.5523 14.0971 14 13.6 14H10.9C10.4029 14 10 13.5523 10 13Z" fill="#F57600"/>
</svg>
