<svg width="36" height="37" viewBox="0 0 36 37" fill="none" xmlns="http://www.w3.org/2000/svg">
<path d="M20.881 26.2391H15.1334C14.7784 26.2391 14.4904 25.9511 14.4904 25.5961V23.0827C12.419 21.8453 11.1484 19.6256 11.1484 17.1976C11.1484 13.4159 14.2254 10.3389 18.0072 10.3389C21.7889 10.3389 24.8659 13.4159 24.8659 17.1976C24.8659 19.6256 23.5953 21.8453 21.524 23.0827V25.5961C21.524 25.9511 21.2359 26.2391 20.881 26.2391ZM15.7764 24.9531H20.238V22.706C20.238 22.4666 20.3712 22.2474 20.5829 22.1359C22.4316 21.1697 23.5799 19.2775 23.5799 17.1976C23.5799 14.1249 21.0799 11.6249 18.0072 11.6249C14.9345 11.6249 12.4345 14.1249 12.4345 17.1976C12.4345 19.2772 13.5827 21.1694 15.4314 22.1356C15.6432 22.2471 15.7764 22.4663 15.7764 22.7058V24.9531Z" fill="#0173B2"/>
<path d="M20.8416 28.37H15.1617C14.3107 28.37 14.3107 27.084 15.1617 27.084H20.8416C21.6924 27.084 21.6924 28.37 20.8416 28.37Z" fill="#0173B2"/>
<path d="M19.8592 30.5004H16.1617C15.3107 30.5004 15.3107 29.2144 16.1617 29.2144H19.8592C20.7102 29.2144 20.7102 30.5004 19.8592 30.5004Z" fill="#0173B2"/>
<path d="M17.3672 8.7098V7.13829C17.3672 6.28724 18.6532 6.28724 18.6532 7.13829V8.7098C18.6532 9.56086 17.3672 9.56086 17.3672 8.7098Z" fill="#0173B2"/>
<path d="M11.5395 11.6514L10.4281 10.5394C9.8262 9.93759 10.7356 9.02852 11.3374 9.63008L12.4488 10.7421C13.0504 11.3439 12.1362 12.2484 11.5395 11.6514Z" fill="#0173B2"/>
<path d="M9.51477 17.8412H7.94298C7.09192 17.8412 7.09192 16.5552 7.94298 16.5552H9.51477C10.3658 16.5552 10.3658 17.8412 9.51477 17.8412Z" fill="#0173B2"/>
<path d="M10.4281 23.8569L11.5395 22.7449C12.1413 22.1431 13.0504 23.0524 12.4488 23.6543L11.3371 24.7663C10.7356 25.3678 9.8262 24.4588 10.4281 23.8569Z" fill="#0173B2"/>
<path d="M23.5525 10.7422L24.6639 9.6302C25.2657 9.02835 26.1748 9.9377 25.5732 10.5396L24.4618 11.6515C23.8648 12.2485 22.9506 11.344 23.5525 10.7422Z" fill="#0173B2"/>
<path d="M28.0577 17.8412H26.4859C25.6349 17.8412 25.6349 16.5552 26.4859 16.5552H28.0577C28.9088 16.5552 28.9088 17.8412 28.0577 17.8412Z" fill="#0173B2"/>
<path d="M24.6566 24.7662L23.5452 23.6542C22.9434 23.0523 23.8527 22.1433 24.4546 22.7448L25.566 23.8568C26.1676 24.4587 25.2582 25.3677 24.6566 24.7662Z" fill="#0173B2"/>
</svg>
