<svg width="37" height="36" viewBox="0 0 37 36" fill="none" xmlns="http://www.w3.org/2000/svg">
<path fill-rule="evenodd" clip-rule="evenodd" d="M34.0791 18.7664C34.0791 22.7036 34.0794 26.6409 34.0789 30.5782C34.0787 32.1111 33.1937 32.9977 31.6644 32.9982C30.3229 32.9986 28.9813 33.0007 27.6398 32.9975C26.275 32.9943 25.3454 32.066 25.3451 30.6987C25.3433 22.7329 25.3433 14.767 25.3451 6.8011C25.3454 5.43327 26.275 4.50498 27.6391 4.50224C29.0262 4.4995 30.4132 4.49895 31.8002 4.50242C33.1428 4.5058 34.0765 5.43665 34.0777 6.78338C34.0812 10.7776 34.079 14.7721 34.0791 18.7664ZM31.8713 30.7908C31.8713 22.7455 31.8713 14.7289 31.8713 6.72174C30.4108 6.72174 28.9745 6.72174 27.5459 6.72174C27.5459 14.7583 27.5459 22.7668 27.5459 30.7908C28.992 30.7908 30.4203 30.7908 31.8713 30.7908Z" fill="#F57600"/>
<path fill-rule="evenodd" clip-rule="evenodd" d="M23.1651 22.5836C23.1651 25.2538 23.1656 27.9241 23.1649 30.5942C23.1645 32.1024 22.272 32.9969 20.7684 32.9975C19.4271 32.9981 18.0857 32.9995 16.7443 32.9971C15.3574 32.9946 14.4315 32.0706 14.431 30.6828C14.4292 25.2853 14.4293 19.8879 14.431 14.4903C14.4315 13.1006 15.3561 12.1758 16.7413 12.1736C18.1168 12.1715 19.4923 12.1711 20.8678 12.1737C22.2337 12.1764 23.1623 13.102 23.164 14.4701C23.1676 17.1747 23.1651 19.8791 23.1651 22.5836ZM20.9578 30.7899C20.9578 25.303 20.9578 19.8437 20.9578 14.393C19.4975 14.393 18.0614 14.393 16.6318 14.393C16.6318 19.8718 16.6318 25.3232 16.6318 30.7899C18.0775 30.7899 19.5057 30.7899 20.9578 30.7899Z" fill="#F57600"/>
<path fill-rule="evenodd" clip-rule="evenodd" d="M3.51675 26.4003C3.51675 24.9856 3.51456 23.5709 3.51729 22.1561C3.52002 20.7691 4.44433 19.8475 5.83298 19.8455C7.20825 19.8435 8.58352 19.8428 9.9588 19.8457C11.3228 19.8484 12.2489 20.7754 12.2505 22.1459C12.2538 24.9981 12.2539 27.8504 12.2504 30.7026C12.2486 32.0676 11.3178 32.9936 9.95179 32.9966C8.56515 32.9995 7.17859 33.0004 5.79195 32.9963C4.45197 32.9923 3.5212 32.0578 3.51757 30.7129C3.51374 29.2754 3.51675 27.8378 3.51675 26.4003ZM10.0439 30.7898C10.0439 27.86 10.0439 24.9579 10.0439 22.0645C8.5838 22.0645 7.14775 22.0645 5.71826 22.0645C5.71826 24.9862 5.71826 27.8804 5.71826 30.7898C7.16404 30.7898 8.59198 30.7898 10.0439 30.7898Z" fill="#F57600"/>
</svg>
