<svg width="37" height="36" viewBox="0 0 37 36" fill="none" xmlns="http://www.w3.org/2000/svg">
<path fill-rule="evenodd" clip-rule="evenodd" d="M34.2822 18.7664C34.2822 22.7036 34.2825 26.6409 34.2821 30.5782C34.2819 32.1111 33.3969 32.9977 31.8676 32.9982C30.526 32.9986 29.1844 33.0007 27.8429 32.9975C26.4781 32.9943 25.5485 32.066 25.5482 30.6987C25.5464 22.7329 25.5464 14.767 25.5482 6.8011C25.5485 5.43327 26.4781 4.50498 27.8422 4.50224C29.2293 4.4995 30.6163 4.49895 32.0033 4.50242C33.3459 4.5058 34.2796 5.43665 34.2809 6.78338C34.2843 10.7776 34.2821 14.7721 34.2822 18.7664ZM32.0744 30.7908C32.0744 22.7455 32.0744 14.7289 32.0744 6.72174C30.6139 6.72174 29.1776 6.72174 27.749 6.72174C27.749 14.7583 27.749 22.7668 27.749 30.7908C29.1952 30.7908 30.6234 30.7908 32.0744 30.7908Z" fill="#FFD098"/>
<path fill-rule="evenodd" clip-rule="evenodd" d="M23.3682 22.5836C23.3682 25.2538 23.3688 27.9241 23.368 30.5942C23.3676 32.1024 22.4751 32.9969 20.9716 32.9975C19.6302 32.9981 18.2888 32.9995 16.9475 32.9971C15.5605 32.9946 14.6346 32.0706 14.6341 30.6828C14.6323 25.2853 14.6324 19.8879 14.6341 14.4903C14.6346 13.1006 15.5592 12.1758 16.9445 12.1736C18.3199 12.1715 19.6955 12.1711 21.0709 12.1737C22.4368 12.1764 23.3654 13.102 23.3671 14.4701C23.3708 17.1747 23.3682 19.8791 23.3682 22.5836ZM21.1609 30.7899C21.1609 25.303 21.1609 19.8437 21.1609 14.393C19.7006 14.393 18.2645 14.393 16.8349 14.393C16.8349 19.8718 16.8349 25.3232 16.8349 30.7899C18.2806 30.7899 19.7088 30.7899 21.1609 30.7899Z" fill="#F57600"/>
<path fill-rule="evenodd" clip-rule="evenodd" d="M3.71987 26.4003C3.71987 24.9856 3.71769 23.5709 3.72042 22.1561C3.72315 20.7691 4.64745 19.8475 6.0361 19.8455C7.41137 19.8435 8.78665 19.8428 10.1619 19.8457C11.5259 19.8484 12.452 20.7754 12.4536 22.1459C12.457 24.9981 12.457 27.8504 12.4535 30.7026C12.4518 32.0676 11.5209 32.9936 10.1549 32.9966C8.76827 32.9995 7.38172 33.0004 5.99507 32.9963C4.6551 32.9923 3.72433 32.0578 3.72069 30.7129C3.71687 29.2754 3.71987 27.8378 3.71987 26.4003ZM10.247 30.7898C10.247 27.86 10.247 24.9579 10.247 22.0645C8.78692 22.0645 7.35088 22.0645 5.92138 22.0645C5.92138 24.9862 5.92138 27.8804 5.92138 30.7898C7.36716 30.7898 8.79511 30.7898 10.247 30.7898Z" fill="#F57600"/>
</svg>
