<svg width="37" height="36" viewBox="0 0 37 36" fill="none" xmlns="http://www.w3.org/2000/svg">
<path fill-rule="evenodd" clip-rule="evenodd" d="M34.4307 18.7664C34.4307 22.7036 34.4309 26.6409 34.4305 30.5782C34.4303 32.1111 33.5453 32.9977 32.016 32.9982C30.6745 32.9986 29.3329 33.0007 27.9913 32.9975C26.6265 32.9943 25.697 32.066 25.6967 30.6987C25.6949 22.7329 25.6949 14.767 25.6967 6.8011C25.697 5.43327 26.6265 4.50498 27.9906 4.50224C29.3777 4.4995 30.7647 4.49895 32.1517 4.50242C33.4943 4.5058 34.428 5.43665 34.4293 6.78338C34.4328 10.7776 34.4306 14.7721 34.4307 18.7664ZM32.2229 30.7908C32.2229 22.7455 32.2229 14.7289 32.2229 6.72174C30.7624 6.72174 29.326 6.72174 27.8975 6.72174C27.8975 14.7583 27.8975 22.7668 27.8975 30.7908C29.3436 30.7908 30.7718 30.7908 32.2229 30.7908Z" fill="#FFD098"/>
<path fill-rule="evenodd" clip-rule="evenodd" d="M23.5167 22.5836C23.5167 25.2538 23.5172 27.9241 23.5165 30.5942C23.516 32.1024 22.6236 32.9969 21.12 32.9975C19.7787 32.9981 18.4372 32.9995 17.0959 32.9971C15.709 32.9946 14.783 32.0706 14.7826 30.6828C14.7808 25.2853 14.7809 19.8879 14.7826 14.4903C14.783 13.1006 15.7076 12.1758 17.0929 12.1736C18.4684 12.1715 19.8439 12.1711 21.2194 12.1737C22.5853 12.1764 23.5138 13.102 23.5156 14.4701C23.5192 17.1747 23.5167 19.8791 23.5167 22.5836ZM21.3093 30.7899C21.3093 25.303 21.3093 19.8437 21.3093 14.393C19.8491 14.393 18.4129 14.393 16.9834 14.393C16.9834 19.8718 16.9834 25.3232 16.9834 30.7899C18.4291 30.7899 19.8573 30.7899 21.3093 30.7899Z" fill="#FFD098"/>
<path fill-rule="evenodd" clip-rule="evenodd" d="M3.86831 26.4003C3.86831 24.9856 3.86612 23.5709 3.86885 22.1561C3.87158 20.7691 4.79589 19.8475 6.18454 19.8455C7.55981 19.8435 8.93509 19.8428 10.3104 19.8457C11.6744 19.8484 12.6005 20.7754 12.602 22.1459C12.6054 24.9981 12.6055 27.8504 12.6019 30.7026C12.6002 32.0676 11.6693 32.9936 10.3034 32.9966C8.91671 32.9995 7.53016 33.0004 6.14351 32.9963C4.80353 32.9923 3.87277 32.0578 3.86913 30.7129C3.86531 29.2754 3.86831 27.8378 3.86831 26.4003ZM10.3954 30.7898C10.3954 27.86 10.3954 24.9579 10.3954 22.0645C8.93536 22.0645 7.49931 22.0645 6.06982 22.0645C6.06982 24.9862 6.06982 27.8804 6.06982 30.7898C7.5156 30.7898 8.94355 30.7898 10.3954 30.7898Z" fill="#F57600"/>
</svg>
