<svg width="20" height="20" viewBox="0 0 20 20" fill="none" xmlns="http://www.w3.org/2000/svg">
<path d="M2 3C2 2.44772 2.44772 2 3 2H17C17.5523 2 18 2.44772 18 3V4C18 4.55228 17.5523 5 17 5H3C2.44772 5 2 4.55228 2 4V3Z" stroke="#F57600" stroke-width="1.6" stroke-linecap="round" stroke-linejoin="round"/>
<path d="M4 9C4 8.44772 4.44772 8 5 8H15C15.5523 8 16 8.44772 16 9V11C16 11.5523 15.5523 12 15 12H5C4.44772 12 4 11.5523 4 11V9Z" stroke="#F57600" stroke-width="1.6" stroke-linecap="round" stroke-linejoin="round"/>
<path d="M2 16C2 15.4477 2.44772 15 3 15H17C17.5523 15 18 15.4477 18 16V17C18 17.5523 17.5523 18 17 18H3C2.44772 18 2 17.5523 2 17V16Z" stroke="#F57600" stroke-width="1.6" stroke-linecap="round" stroke-linejoin="round"/>
</svg>
