<svg width="400" height="400" viewBox="0 0 400 400" xmlns="http://www.w3.org/2000/svg" role="img" aria-labelledby="title desc">
  <title id="title">No Data</title>
  <desc id="desc">An empty chart with a magnifying glass indicating no data available</desc>

  <!-- Palette -->
  <defs>
    <style>
      .stroke { stroke:#0173b2; }
      .fill   { fill:#0173b2; }
    </style>
    <clipPath id="card-clip">
      <rect x="70" y="90" width="260" height="180" rx="16" ry="16"/>
    </clipPath>
  </defs>

  <!-- Subtle halo -->
  <circle cx="200" cy="190" r="150" class="fill" opacity="0.06"/>

  <!-- Dashed boundary -->
  <rect x="50" y="70" width="300" height="220" rx="20" ry="20"
        class="stroke" fill="none" stroke-width="2.5" stroke-dasharray="10 8"/>

  <!-- Chart card -->
  <rect x="70" y="90" width="260" height="180" rx="16" ry="16"
        class="stroke" fill="white" fill-opacity="0" stroke-width="2"/>

  <!-- Chart grid lines -->
  <g class="stroke" stroke-width="1.5" opacity="0.25" clip-path="url(#card-clip)">
    <line x1="90" y1="240" x2="300" y2="240"/>
    <line x1="90" y1="210" x2="300" y2="210"/>
    <line x1="90" y1="180" x2="300" y2="180"/>
    <line x1="90" y1="150" x2="300" y2="150"/>
  </g>

  <!-- Empty bars -->
  <g class="stroke" stroke-width="10" stroke-linecap="round" opacity="0.6">
    <line x1="120" y1="240" x2="120" y2="200"/>
    <line x1="170" y1="240" x2="170" y2="170"/>
    <line x1="220" y1="240" x2="220" y2="185"/>
    <line x1="270" y1="240" x2="270" y2="160"/>
  </g>

  <!-- X/Y axes -->
  <g class="stroke" stroke-width="2.5">
    <line x1="90" y1="240" x2="300" y2="240"/>
    <line x1="90" y1="130" x2="90" y2="240"/>
  </g>

  <!-- Magnifying glass over chart -->
  <g transform="translate(235,215) rotate(-8)">
    <circle r="34" class="stroke" fill="white" fill-opacity="0" stroke-width="3"/>
    <line x1="24" y1="24" x2="52" y2="52" class="stroke" stroke-width="6" stroke-linecap="round"/>
    <!-- Small sparkle -->
    <g class="stroke" stroke-width="2" opacity="0.8" transform="translate(-10,-30)">
      <line x1="0" y1="-6" x2="0" y2="6"/>
      <line x1="-6" y1="0" x2="6" y2="0"/>
    </g>
  </g>
</svg>

