<svg width="37" height="31" viewBox="0 0 37 31" fill="none" xmlns="http://www.w3.org/2000/svg">
<path d="M18.6038 0.829604L18.0153 1.4034C15.1512 4.00463 13.1895 6.52935 12.1301 8.97756C11.3847 10.7372 10.9531 12.4012 10.8354 13.9696V15.1746C12.1301 15.4806 13.2875 16.1309 14.3076 17.1255C15.7985 18.5791 16.544 20.377 16.544 22.5192C16.544 24.6232 15.7985 26.4211 14.3076 27.913C12.8167 29.3666 11.012 30.0934 8.89332 30.0934C7.01008 30.0934 5.20531 29.4048 3.47901 28.0277C1.79194 26.6888 0.771849 24.7379 0.418741 22.175C0.301039 21.2951 0.242188 20.4344 0.242188 19.5929C0.242188 16.5326 1.00725 13.5297 2.53739 10.5842C5.40148 5.11398 8.97179 1.93895 13.2483 1.05912C14.3861 0.829604 15.5043 0.714844 16.6028 0.714844C17.2306 0.714844 17.8976 0.753097 18.6038 0.829604Z" fill="white"/>
<path d="M36.9632 0.829604L36.3746 1.4034C33.5105 4.00463 31.5488 6.52935 30.4895 8.97756C29.7441 10.7372 29.3125 12.4012 29.1948 13.9696V15.1746C30.4895 15.4806 31.6469 16.1309 32.667 17.1255C34.1579 18.5791 34.9034 20.377 34.9034 22.5192C34.9034 24.6232 34.1579 26.4211 32.667 27.913C31.1761 29.3666 29.3713 30.0934 27.2527 30.0934C25.3695 30.0934 23.5647 29.4048 21.8384 28.0277C20.1513 26.6888 19.1312 24.7379 18.7781 22.175C18.6604 21.2951 18.6016 20.4344 18.6016 19.5929C18.6016 16.5326 19.3666 13.5297 20.8968 10.5842C23.7609 5.11398 27.3312 1.93895 31.6077 1.05912C32.7455 0.829604 33.8637 0.714844 34.9622 0.714844C35.59 0.714844 36.2569 0.753097 36.9632 0.829604Z" fill="white"/>
</svg>
