<svg width="20" height="20" viewBox="0 0 20 20" fill="none" xmlns="http://www.w3.org/2000/svg">
<path d="M10.0146 2.50293H10.0156L10.0166 2.50391C10.0171 2.50448 10.0182 2.50593 10.0195 2.50781L12.5684 6.18066C12.8326 6.5613 13.2201 6.83784 13.6631 6.9668L17.9893 8.22559C17.9949 8.22727 17.9977 8.22829 17.998 8.22852V8.22949L15.249 11.7588C14.9643 12.1243 14.8143 12.5775 14.8271 13.042L14.9502 17.4912C14.9495 17.4918 14.9493 17.4934 14.9482 17.4941C14.9433 17.4977 14.9384 17.4996 14.9355 17.5C14.9344 17.5002 14.933 17.5001 14.9316 17.5C14.9302 17.4998 14.9271 17.4989 14.9219 17.4971L10.6729 16.0059C10.2375 15.853 9.7625 15.853 9.32715 16.0059L5.07812 17.4971C5.07289 17.4989 5.06983 17.4998 5.06836 17.5C5.06704 17.5001 5.06556 17.5002 5.06445 17.5C5.06161 17.4996 5.05665 17.4977 5.05176 17.4941C5.05037 17.4931 5.0496 17.492 5.04883 17.4912L5.17285 13.042C5.18573 12.5775 5.03571 12.1244 4.75098 11.7588L2.00098 8.22949L2.00195 8.22852C2.00233 8.22829 2.00506 8.22728 2.01074 8.22559L6.33691 6.9668C6.77986 6.83784 7.16737 6.5613 7.43164 6.18066L9.98047 2.50781C9.98178 2.50593 9.98288 2.50448 9.9834 2.50391L9.98438 2.50293H9.98535C9.98718 2.50207 9.99218 2.5 10 2.5C10.0078 2.5 10.0128 2.50207 10.0146 2.50293Z" stroke="#F57600" stroke-width="2"/>
</svg>
