<svg width="17" height="18" viewBox="0 0 17 18" fill="none" xmlns="http://www.w3.org/2000/svg">
<path d="M11.1334 9.53872L9.35 8.50942V4.75C9.35 4.52457 9.26045 4.30836 9.10104 4.14896C8.94164 3.98955 8.72544 3.9 8.5 3.9C8.27457 3.9 8.05837 3.98955 7.89896 4.14896C7.73956 4.30836 7.65 4.52457 7.65 4.75V9C7.64996 9.14923 7.68922 9.29585 7.76382 9.4251C7.83843 9.55435 7.94575 9.66167 8.075 9.73628L10.2834 11.0113C10.3801 11.0672 10.4869 11.1034 10.5976 11.118C10.7083 11.1327 10.8208 11.1253 10.9287 11.0964C11.0366 11.0675 11.1377 11.0177 11.2263 10.9497C11.3149 10.8817 11.3892 10.7969 11.4451 10.7002C11.5009 10.6035 11.5371 10.4967 11.5517 10.386C11.5662 10.2753 11.5588 10.1628 11.5299 10.0549C11.5009 9.94704 11.451 9.84593 11.383 9.75737C11.315 9.6688 11.2302 9.5945 11.1334 9.53872ZM8.5 0.5C6.81886 0.5 5.17547 0.998516 3.77766 1.93251C2.37984 2.8665 1.29037 4.19402 0.647028 5.74719C0.00368293 7.30036 -0.164645 9.00943 0.163329 10.6583C0.491303 12.3071 1.30085 13.8217 2.4896 15.0104C3.67834 16.1992 5.1929 17.0087 6.84174 17.3367C8.49057 17.6646 10.1996 17.4963 11.7528 16.853C13.306 16.2096 14.6335 15.1202 15.5675 13.7223C16.5015 12.3245 17 10.6811 17 9C16.9975 6.74643 16.1012 4.58588 14.5076 2.99236C12.9141 1.39884 10.7536 0.502506 8.5 0.5ZM8.5 15.8C7.15509 15.8 5.84038 15.4012 4.72213 14.654C3.60387 13.9068 2.7323 12.8448 2.21762 11.6022C1.70295 10.3597 1.56828 8.99246 1.83066 7.67338C2.09304 6.35431 2.74068 5.14267 3.69168 4.19167C4.64267 3.24068 5.85432 2.59304 7.17339 2.33066C8.49246 2.06828 9.85971 2.20294 11.1022 2.71762C12.3448 3.23229 13.4068 4.10387 14.154 5.22212C14.9012 6.34038 15.3 7.65509 15.3 9C15.2979 10.8028 14.5808 12.5312 13.306 13.806C12.0312 15.0808 10.3028 15.7979 8.5 15.8Z" fill="#F57600"/>
</svg>
