<svg width="20" height="20" viewBox="0 0 20 20" fill="none" xmlns="http://www.w3.org/2000/svg">
<path fill-rule="evenodd" clip-rule="evenodd" d="M10 2.8C8.34315 2.8 7 4.00883 7 5.5C7 6.99117 8.34315 8.2 10 8.2C11.6569 8.2 13 6.99117 13 5.5C13 4.00883 11.6569 2.8 10 2.8ZM5 5.5C5 3.01472 7.23858 1 10 1C12.7614 1 15 3.01472 15 5.5C15 7.98528 12.7614 10 10 10C7.23858 10 5 7.98528 5 5.5ZM4.08296 17.2H15.917C15.441 14.6461 12.973 12.7 10 12.7C7.027 12.7 4.55904 14.6461 4.08296 17.2ZM2 18.1C2 14.1235 5.58172 10.9 10 10.9C14.4183 10.9 18 14.1235 18 18.1C18 18.5971 17.5523 19 17 19H3C2.44772 19 2 18.5971 2 18.1Z" fill="#F57600"/>
</svg>
