<svg width="16" height="24" viewBox="0 0 16 24" fill="none" xmlns="http://www.w3.org/2000/svg">
<path d="M15.8906 9.40374C15.8075 9.21868 15.6802 9.06305 15.523 8.95411C15.3658 8.84516 15.1847 8.78716 14.9999 8.78654H9.99582V2.0534C10.0066 1.80729 9.94475 1.56405 9.81995 1.36124C9.69514 1.15842 9.51427 1.00731 9.30525 0.931213C9.10431 0.857084 8.88759 0.856251 8.68621 0.928833C8.48482 1.00141 8.30912 1.14368 8.18434 1.3352L0.1778 13.6793C0.0774834 13.8418 0.0172472 14.0312 0.00318763 14.2283C-0.010872 14.4254 0.0217441 14.6231 0.0977344 14.8015C0.167713 15.0054 0.289279 15.182 0.44751 15.3096C0.60574 15.4372 0.79375 15.5102 0.988461 15.5197H5.99255V22.2528C5.9927 22.4895 6.05957 22.72 6.1836 22.9115C6.30762 23.1029 6.48246 23.2455 6.68311 23.3189C6.78366 23.3538 6.88811 23.3727 6.99336 23.375C7.15128 23.3755 7.30705 23.334 7.44794 23.254C7.58884 23.1741 7.71086 23.0579 7.80403 22.9149L15.8106 10.5708C15.9184 10.4034 15.9829 10.2058 15.9971 9.99991C16.0112 9.79399 15.9744 9.5877 15.8906 9.40374ZM7.99418 18.7965V14.3975C7.99418 14.0999 7.88874 13.8144 7.70105 13.604C7.51336 13.3935 7.2588 13.2753 6.99336 13.2753H2.9901L7.99418 5.50974V9.90873C7.99418 10.2063 8.09962 10.4918 8.28731 10.7022C8.475 10.9127 8.72956 11.0309 8.995 11.0309H12.9983L7.99418 18.7965Z" fill="#F57600"/>
</svg>
