<!DOCTYPE svg PUBLIC "-//W3C//DTD SVG 1.1//EN" "http://www.w3.org/Graphics/SVG/1.1/DTD/svg11.dtd">
<!-- Uploaded to: SVG Repo, www.svgrepo.com, Transformed by: SVG Repo Mixer Tools -->
<svg height="64px" width="64px" version="1.1" id="Layer_1" xmlns="http://www.w3.org/2000/svg" xmlns:xlink="http://www.w3.org/1999/xlink" viewBox="0 0 504.32 504.32" xml:space="preserve" fill="#000000">
<g id="SVGRepo_bgCarrier" stroke-width="0"/>
<g id="SVGRepo_tracerCarrier" stroke-linecap="round" stroke-linejoin="round"/>
<g id="SVGRepo_iconCarrier"> <g transform="translate(1 1)"> <polygon style="fill:#E4F2DE;" points="464.493,38.253 464.493,362.52 362.093,464.92 37.826,464.92 37.826,123.586 123.16,38.253 "/> <path style="fill:#80D6FA;" d="M464.493,328.386c18.773,0,34.133,15.36,34.133,34.133s-15.36,34.133-34.133,34.133 c-9.387,0-17.92-4.267-23.893-10.24c-5.973-5.973-10.24-14.507-10.24-23.893C430.36,343.746,445.72,328.386,464.493,328.386z M464.493,4.12c18.773,0,34.133,15.36,34.133,34.133s-15.36,34.133-34.133,34.133c-9.387,0-17.92-4.267-23.893-10.24 s-10.24-14.507-10.24-23.893C430.36,19.48,445.72,4.12,464.493,4.12z M52.333,109.933C64.28,115.053,71.96,127,71.96,140.653 c0,18.773-15.36,34.133-34.133,34.133s-34.133-15.36-34.133-34.133s15.36-34.133,34.133-34.133 C42.947,106.52,48.067,107.373,52.333,109.933z M123.16,4.12c18.773,0,34.133,15.36,34.133,34.133s-15.36,34.133-34.133,34.133 c-9.387,0-17.92-4.267-23.893-10.24c-5.973-5.973-10.24-14.507-10.24-23.893C89.027,19.48,104.386,4.12,123.16,4.12z M123.16,328.386c18.773,0,34.133,15.36,34.133,34.133s-15.36,34.133-34.133,34.133c-9.387,0-17.92-4.267-23.893-10.24 c-5.973-5.973-10.24-14.507-10.24-23.893C89.027,343.746,104.386,328.386,123.16,328.386z M41.24,430.786 C58.306,432.493,71.96,447,71.96,464.92c0,18.773-15.36,34.133-34.133,34.133S3.693,483.693,3.693,464.92 c0-18.773,15.36-34.133,34.133-34.133C38.68,430.786,40.386,430.786,41.24,430.786z M385.987,441.027 c5.973,5.973,10.24,14.507,10.24,23.893c0,18.773-15.36,34.133-34.133,34.133c-18.773,0-34.133-15.36-34.133-34.133 c0-18.773,15.36-34.133,34.133-34.133C371.48,430.786,380.013,434.2,385.987,441.027z M385.987,116.76 c5.973,5.973,10.24,14.507,10.24,23.893c0,18.773-15.36,34.133-34.133,34.133c-18.773,0-34.133-15.36-34.133-34.133 s15.36-34.133,34.133-34.133C371.48,106.52,380.013,109.933,385.987,116.76z"/> </g> <path style="fill:#51565F;" d="M363.093,504.32c-21.333,0-38.4-17.067-38.4-38.4c0-19.627,15.36-35.84,34.133-38.4v-59.733H162.56 c-1.707,18.773-18.773,34.133-38.4,34.133c-9.387,0-17.067-3.413-23.893-8.533L78.08,415.573c-1.707,1.707-4.267,1.707-5.973,0 c-0.853-0.853-0.853-1.707-0.853-3.413s0-2.56,0.853-3.413l22.187-22.187c-5.12-6.827-8.533-14.507-8.533-23.893 c0-21.333,17.067-38.4,38.4-38.4c19.627,0,35.84,15.36,38.4,34.133h196.267V209.92c0-2.56,1.707-4.267,4.267-4.267 s4.267,1.707,4.267,4.267v149.333h29.013c2.56,0,4.267,1.707,4.267,4.267s-1.707,4.267-4.267,4.267H367.36v59.733 c18.773,2.56,34.133,18.773,34.133,38.4C401.493,487.253,384.427,504.32,363.093,504.32z M363.093,436.053 c-16.213,0-29.867,13.653-29.867,29.867c0,16.213,13.653,29.867,29.867,29.867c16.213,0,29.867-13.653,29.867-29.867 C392.96,449.707,379.306,436.053,363.093,436.053z M124.16,333.653c-16.213,0-29.867,13.653-29.867,29.867 s13.653,29.867,29.867,29.867s29.867-13.653,29.867-29.867S140.373,333.653,124.16,333.653z M38.826,504.32 c-21.333,0-38.4-17.067-38.4-38.4c0-21.333,17.067-38.4,38.4-38.4c19.627,0,35.84,15.36,38.4,34.133h217.6 c2.56,0,4.267,1.707,4.267,4.267c0,2.56-1.707,4.267-4.267,4.267h-217.6C74.667,488.96,58.453,504.32,38.826,504.32z M38.826,436.053c-16.213,0-29.867,13.653-29.867,29.867c0,16.213,13.653,29.867,29.867,29.867s29.867-13.653,29.867-29.867 C68.693,449.707,55.04,436.053,38.826,436.053z M408.32,424.96c-0.853,0-2.56,0-3.413-0.853c-0.853-0.853-0.853-1.707-0.853-3.413 c0-1.706,0-2.56,0.853-3.413l30.72-30.72c-5.12-6.827-8.533-14.507-8.533-23.893c0-21.333,17.067-38.4,38.4-38.4 s38.4,17.067,38.4,38.4s-17.067,38.4-38.4,38.4c-9.387,0-17.067-3.413-23.893-8.533l-30.72,30.72 C410.027,424.96,409.173,424.96,408.32,424.96z M465.493,333.653c-16.213,0-29.867,13.653-29.867,29.867 s13.653,29.867,29.867,29.867s29.867-13.653,29.867-29.867S481.706,333.653,465.493,333.653z M38.826,401.92 c-2.56,0-4.267-1.707-4.267-4.267v-217.6c-18.773-1.707-34.133-18.773-34.133-38.4c0-21.333,17.067-38.4,38.4-38.4 s38.4,17.067,38.4,38.4c0,19.627-15.36,35.84-34.133,38.4v217.6C43.093,400.213,41.386,401.92,38.826,401.92z M38.826,111.786 c-16.213,0-29.867,13.653-29.867,29.867s13.653,29.867,29.867,29.867s29.867-13.653,29.867-29.867S55.04,111.786,38.826,111.786z M465.493,299.52c-2.56,0-4.267-1.707-4.267-4.267v-217.6c-7.68-0.853-14.507-3.413-19.627-8.533l-21.333,21.333 c-1.707,1.707-4.267,1.707-5.973,0c-0.853-0.853-0.853-1.707-0.853-3.413s0-2.56,0.853-3.413l21.333-21.333 c-5.12-6.827-8.533-14.507-8.533-23.893c0-21.333,17.067-38.4,38.4-38.4c21.333,0,38.4,17.067,38.4,38.4 c0,19.627-15.36,35.84-34.133,38.4v218.453C469.76,297.813,468.053,299.52,465.493,299.52z M465.493,9.386 c-16.213,0-29.867,13.653-29.867,29.867S449.28,69.12,465.493,69.12s29.867-13.653,29.867-29.867S481.706,9.386,465.493,9.386z M124.16,297.813c-2.56,0-4.267-1.707-4.267-4.267V145.92h-12.8c-2.56,0-4.267-1.707-4.267-4.267c0-2.56,1.707-4.267,4.267-4.267 h12.8V77.653c-7.68-0.853-14.507-3.413-19.627-8.533L78.08,91.307c-1.707,1.707-4.267,1.707-5.973,0 c-0.853-0.853-0.853-1.707-0.853-3.413s0-2.56,0.853-3.413l22.187-22.187c-5.12-6.827-8.533-14.507-8.533-23.893 c0-21.333,17.067-38.4,38.4-38.4c19.627,0,35.84,15.36,38.4,34.133h234.667c2.56,0,4.267,1.707,4.267,4.267 s-1.707,4.267-4.267,4.267H162.56c-1.707,17.92-16.213,31.573-34.133,34.133v59.733h196.267c2.56-18.773,18.773-34.133,38.4-34.133 c21.333,0,38.4,17.067,38.4,38.4s-17.067,38.4-38.4,38.4c-19.627,0-35.84-15.36-38.4-34.133H128.426v147.627 C128.426,295.253,126.72,297.813,124.16,297.813z M363.093,111.786c-16.213,0-29.867,13.653-29.867,29.867 s13.653,29.867,29.867,29.867c16.213,0,29.867-13.653,29.867-29.867S379.306,111.786,363.093,111.786z M124.16,9.386 c-16.213,0-29.867,13.653-29.867,29.867S107.947,69.12,124.16,69.12s29.867-13.653,29.867-29.867S140.373,9.386,124.16,9.386z"/> </g>
</svg>