<svg width="36" height="36" viewBox="0 0 36 36" fill="none" xmlns="http://www.w3.org/2000/svg">
<path d="M18 35.9995C27.9411 35.9995 36 27.9406 36 17.9995C36 8.05839 27.9411 -0.000488281 18 -0.000488281C8.05888 -0.000488281 0 8.05839 0 17.9995C0 27.9406 8.05888 35.9995 18 35.9995Z" fill="#007AB9"/>
<path d="M28.7571 19.4481V26.8691H24.4546V19.9455C24.4546 18.207 23.8334 17.0198 22.2756 17.0198C21.0868 17.0198 20.3805 17.8191 20.0687 18.593C19.9554 18.8696 19.9262 19.2537 19.9262 19.6416V26.8688H15.6234C15.6234 26.8688 15.6811 15.1424 15.6234 13.9286H19.9265V15.7623C19.9178 15.7768 19.9057 15.7909 19.898 15.8047H19.9265V15.7623C20.4983 14.8825 21.518 13.6247 23.8042 13.6247C26.6349 13.6247 28.7571 15.4742 28.7571 19.4481ZM11.1222 7.69092C9.65042 7.69092 8.6875 8.65705 8.6875 9.9264C8.6875 11.1688 9.62251 12.1628 11.0658 12.1628H11.0937C12.5944 12.1628 13.5275 11.1688 13.5275 9.9264C13.4989 8.65705 12.5944 7.69092 11.1222 7.69092ZM8.94323 26.8691H13.2445V13.9286H8.94323V26.8691Z" fill="#F1F2F2"/>
</svg>
