<svg width="24" height="24" viewBox="0 0 24 24" fill="none" xmlns="http://www.w3.org/2000/svg">
<path d="M20.4216 16.1481C18.7302 15.4022 15.7483 16.953 13.3544 18.2019C12.3999 18.6981 11.4989 19.1699 11.1056 19.2427C10.7658 19.3052 10.4871 19.267 10.258 19.1248C9.9755 18.9513 9.81896 18.6495 9.73496 18.4344C9.90295 18.3858 10.1091 18.3511 10.3611 18.3407C12.6977 18.2609 14.1638 17.4803 14.1868 16.3042C14.1982 15.7561 13.9577 15.4508 13.7553 15.2912C13.2933 14.9269 12.6634 15.0032 12.5985 15.0136C12.5794 15.0171 10.5673 15.2738 9.34934 15.1316L9.23862 15.1177C8.03595 14.9755 6.89818 14.8437 5.78333 16.2765C4.92427 17.3832 3.49634 17.2167 3.43907 17.2097C3.32835 17.1958 3.21763 17.2236 3.13363 17.2895C3.04963 17.3554 3 17.4526 3 17.5532V22.0078C3 22.1847 3.14508 22.3339 3.3398 22.3512L9.44098 22.9688C9.64715 22.9896 9.85714 23 10.0633 23C11.1629 23 12.2472 22.7086 13.1712 22.1604L20.5208 17.7995C20.8377 17.6122 21.021 17.2791 20.9981 16.9322C20.9752 16.5922 20.7575 16.2973 20.4216 16.1481ZM20.1047 17.2236L12.755 21.5845C11.8005 22.15 10.6551 22.3998 9.52497 22.2853L3.7636 21.7025V17.9209C4.40121 17.9071 5.59243 17.7301 6.40566 16.6824C7.25708 15.5896 7.96723 15.6728 9.13935 15.8116L9.25007 15.8255C10.5711 15.9781 12.6176 15.7144 12.7092 15.704C12.7817 15.6936 13.0795 15.6832 13.2513 15.8185C13.3659 15.9087 13.4232 16.0683 13.4193 16.2938C13.4041 17.2167 11.7432 17.5983 10.3268 17.6469C9.81514 17.6642 9.42189 17.7717 9.12408 17.9105C9.10499 17.9175 9.0859 17.9279 9.06681 17.9383C8.53611 18.2019 8.34521 18.5523 8.32994 18.5732C8.2383 18.7432 8.31466 18.9444 8.50175 19.0311C8.68883 19.1178 8.91409 19.0485 9.01336 18.8854C9.01718 18.8819 9.03245 18.8507 9.07063 18.8125C9.20426 19.104 9.43716 19.4544 9.81514 19.6937C10.2198 19.947 10.7009 20.0268 11.2507 19.9227C11.7661 19.829 12.6328 19.378 13.7286 18.8056C15.7292 17.7648 18.7569 16.1897 20.0818 16.7761C20.2078 16.8316 20.2268 16.9391 20.2307 16.9842C20.2421 17.0814 20.1925 17.1716 20.1047 17.2236Z" fill="#242424"/>
<path d="M7.95435 10.7876C8.2114 10.7876 8.45711 10.7387 8.6877 10.6447V13.6238C8.6877 13.8307 8.85781 14 9.06572 14H12.8308C12.9895 14 13.1332 13.8984 13.1861 13.748C13.239 13.5975 13.1899 13.4282 13.0651 13.3304C13.0425 13.3154 13.0236 13.2966 13.0047 13.274C12.5397 12.8076 12.5397 12.0477 13.0047 11.5813C13.2315 11.3556 13.5301 11.2315 13.8476 11.2315C14.1652 11.2315 14.4638 11.3556 14.6868 11.5813C15.1518 12.044 15.1518 12.8038 14.6868 13.2703C14.6641 13.2928 14.6452 13.3116 14.6226 13.3267C14.4978 13.4282 14.4487 13.5938 14.5016 13.7442C14.5545 13.8947 14.6982 13.9962 14.8569 13.9962H18.622C18.8299 13.9962 19 13.827 19 13.6201V9.85851C19 9.70052 18.8979 9.55758 18.7467 9.50492C18.5955 9.45226 18.4254 9.50116 18.3271 9.62529C18.312 9.64786 18.2931 9.66667 18.2704 9.68924C18.0436 9.91493 17.745 10.0391 17.4275 10.0391C17.1099 10.0391 16.8113 9.91493 16.5883 9.693C16.1233 9.22656 16.1195 8.46672 16.5883 8.00029C16.8113 7.7746 17.1099 7.65046 17.4275 7.65046C17.745 7.65046 18.0436 7.7746 18.2704 8.00029C18.2931 8.02286 18.312 8.04167 18.3271 8.06424C18.4292 8.18837 18.5955 8.23727 18.7467 8.18461C18.8979 8.13194 19 7.989 19 7.83102V4.05816C19 3.85127 18.8299 3.682 18.622 3.682H15.6432C15.7377 3.44878 15.7869 3.20052 15.7869 2.94473C15.7869 1.87269 14.9136 1 13.8401 1C12.7665 1 11.8933 1.87269 11.8933 2.94473C11.8933 3.20052 11.9424 3.45255 12.0369 3.682H9.05816C8.85025 3.682 8.68014 3.85127 8.68014 4.05816V7.03733C8.44955 6.94329 8.20006 6.89439 7.94679 6.89439C6.87322 6.89439 6 7.76707 6 8.83912C6.00756 9.91493 6.88078 10.7876 7.95435 10.7876ZM7.95435 7.6467C8.27188 7.6467 8.57429 7.77083 8.79732 8.00029C8.90695 8.10938 9.0695 8.14323 9.20936 8.08304C9.35301 8.02662 9.44373 7.88744 9.44373 7.73698V4.43808H12.74C12.8912 4.43808 13.0311 4.3478 13.0878 4.20486C13.1483 4.06568 13.1143 3.90393 13.0047 3.79485C12.7778 3.56915 12.6493 3.26823 12.6493 2.9485C12.6493 2.29022 13.1823 1.75608 13.8401 1.75608C14.4978 1.75608 15.0308 2.29022 15.0308 2.9485C15.0308 3.26823 14.9061 3.56915 14.6755 3.79485C14.5659 3.90393 14.5356 4.06568 14.5923 4.20486C14.649 4.34404 14.7889 4.43808 14.9401 4.43808H18.2364V7.07494C17.9831 6.95833 17.7072 6.89815 17.4199 6.89815C17.4199 6.89815 17.4199 6.89815 17.4161 6.89815C16.8944 6.89815 16.4068 7.10127 16.0439 7.46991C15.2841 8.22598 15.2841 9.45978 16.0439 10.2234C16.4106 10.5883 16.8982 10.7914 17.4161 10.7914C17.4161 10.7914 17.4161 10.7914 17.4199 10.7914C17.7072 10.7914 17.9831 10.7312 18.2364 10.6146V13.2552H15.6167C15.9494 12.533 15.8209 11.6528 15.2274 11.0622C14.8607 10.6936 14.3731 10.4905 13.8514 10.4905C13.8514 10.4905 13.8514 10.4905 13.8476 10.4905C13.326 10.4905 12.8383 10.6936 12.4679 11.0622C11.8782 11.6528 11.7496 12.5367 12.0823 13.2552H9.44751V9.95255C9.44751 9.79832 9.35301 9.6629 9.21314 9.60648C9.07328 9.5463 8.90695 9.58015 8.8011 9.68924C8.57429 9.91493 8.27566 10.0428 7.95813 10.0428C7.30038 10.0428 6.76737 9.50868 6.76737 8.8504C6.76359 8.18084 7.30038 7.6467 7.95435 7.6467Z" fill="#242424"/>
</svg>
