<svg width="24" height="24" viewBox="0 0 24 24" fill="none" xmlns="http://www.w3.org/2000/svg">
<path d="M21.2181 4.33774L20.0488 3.16851C19.5369 2.65663 18.8634 2.38184 18.1468 2.38184H18.1199C17.3924 2.38722 16.7081 2.68357 16.207 3.21162L4.79489 15.0925C4.79489 15.0925 4.79489 15.1033 4.78412 15.1033C4.7464 15.141 4.71407 15.1895 4.69252 15.238L2.1008 20.8471C1.90683 21.2674 1.99843 21.7469 2.32711 22.0702C2.53725 22.2696 2.80127 22.3774 3.07068 22.3774C3.23232 22.3774 3.39935 22.3396 3.55561 22.2588L8.64744 19.7102C8.64744 19.7102 8.67438 19.6887 8.68516 19.6779C8.7121 19.6617 8.74443 19.6456 8.77137 19.624L21.1318 8.21184C21.676 7.71074 21.9832 7.02644 21.9993 6.28826C22.0155 5.55008 21.7353 4.85501 21.2127 4.32697L21.2181 4.33774ZM15.2156 5.78716L18.5617 9.13322L8.45885 18.4602L5.91024 15.4859L15.2156 5.78716ZM3.08145 21.2997L5.31755 16.4504L7.55364 19.0582L3.08145 21.2943V21.2997ZM20.4098 7.43056L19.3591 8.40043L15.9646 5.00588L16.9776 3.9498C17.2793 3.63189 17.6888 3.45947 18.1252 3.45408H18.1414C18.5725 3.45408 18.9766 3.62112 19.2837 3.92824L20.4529 5.09748C20.7654 5.40999 20.9325 5.83027 20.9271 6.2721C20.9217 6.71393 20.7331 7.12882 20.4044 7.42517L20.4098 7.43056Z" fill="#242424"/>
<path d="M17.4641 12.5547C17.2863 12.3176 16.9469 12.2691 16.7098 12.4523C16.4727 12.6301 16.4242 12.9695 16.6074 13.2066L16.9469 13.6538L15.0987 15.0386C14.8616 15.2164 14.8131 15.5559 14.991 15.793C15.0987 15.933 15.2604 16.0085 15.422 16.0085C15.5352 16.0085 15.6483 15.9762 15.7453 15.9007L17.5988 14.5106L18.5741 15.7983L16.7152 17.1939C16.4781 17.3717 16.4296 17.7111 16.6074 17.9482C16.7152 18.0883 16.8768 18.1638 17.0385 18.1638C17.1516 18.1638 17.2648 18.1314 17.3618 18.056L19.2261 16.6604L20.0558 17.7542L14.7808 21.7523L11.8119 17.8405C11.6341 17.6034 11.2947 17.5549 11.0576 17.7381C10.8205 17.9159 10.772 18.2553 10.9552 18.4924L13.9241 22.4042C14.1342 22.6844 14.4575 22.8299 14.7862 22.8299C15.0125 22.8299 15.2388 22.7599 15.4382 22.609L20.7132 18.611C20.9449 18.4385 21.0904 18.1853 21.1281 17.8997C21.1658 17.6142 21.0958 17.3286 20.918 17.1023L17.4695 12.5547H17.4641Z" fill="#242424"/>
<path d="M6.05321 12.0211C6.16097 12.1612 6.32261 12.2367 6.48426 12.2367C6.59741 12.2367 6.71056 12.1989 6.80755 12.1289C7.04463 11.9511 7.09312 11.6116 6.90993 11.3745L3.65008 7.07479L8.9251 3.07676L10.2398 4.81175L8.08994 6.42282C7.85286 6.60063 7.80436 6.94008 7.98217 7.17716C8.08994 7.31725 8.25158 7.39269 8.41323 7.39269C8.52638 7.39269 8.63953 7.36036 8.73652 7.28492L10.8864 5.66847L11.6192 6.63834C11.797 6.87542 12.1365 6.92392 12.3735 6.74072C12.6106 6.56291 12.6591 6.22345 12.4759 5.98637L9.77644 2.42479C9.60401 2.1931 9.35077 2.04762 9.0652 2.0099C8.77962 1.97218 8.49405 2.04223 8.26775 2.22004L3.0035 6.21268C2.52934 6.57369 2.43774 7.24721 2.79875 7.72137L6.05859 12.0211H6.05321Z" fill="#242424"/>
</svg>
