<svg width="24" height="24" viewBox="0 0 24 24" fill="none" xmlns="http://www.w3.org/2000/svg">
<path d="M16.0982 8.54915H7.90208C7.78767 8.54915 7.67795 8.50371 7.59705 8.42281C7.51615 8.34191 7.4707 8.23219 7.4707 8.11778V1.64719C7.4707 1.53279 7.51615 1.42306 7.59705 1.34217C7.67795 1.26127 7.78767 1.21582 7.90208 1.21582H16.0982C16.2126 1.21582 16.3223 1.26127 16.4032 1.34217C16.4841 1.42306 16.5295 1.53279 16.5295 1.64719V8.11778C16.5295 8.23219 16.4841 8.34191 16.4032 8.42281C16.3223 8.50371 16.2126 8.54915 16.0982 8.54915ZM8.33345 7.68641H15.6668V2.07857H8.33345V7.68641Z" fill="#242424"/>
<path d="M9.6294 22.7845H1.43333C1.31892 22.7845 1.2092 22.7391 1.1283 22.6582C1.0474 22.5773 1.00195 22.4675 1.00195 22.3531V15.8825C1.00195 15.7681 1.0474 15.6584 1.1283 15.5775C1.2092 15.4966 1.31892 15.4512 1.43333 15.4512H9.6294C9.74381 15.4512 9.85353 15.4966 9.93443 15.5775C10.0153 15.6584 10.0608 15.7681 10.0608 15.8825V22.3531C10.0608 22.4675 10.0153 22.5773 9.93443 22.6582C9.85353 22.7391 9.74381 22.7845 9.6294 22.7845ZM1.8647 21.9218H9.19803V16.3139H1.8647V21.9218Z" fill="#242424"/>
<path d="M22.5669 22.7845H14.3708C14.2564 22.7845 14.1467 22.7391 14.0658 22.6582C13.9849 22.5773 13.9395 22.4675 13.9395 22.3531V15.8825C13.9395 15.7681 13.9849 15.6584 14.0658 15.5775C14.1467 15.4966 14.2564 15.4512 14.3708 15.4512H22.5669C22.6813 15.4512 22.791 15.4966 22.8719 15.5775C22.9528 15.6584 22.9983 15.7681 22.9983 15.8825V22.3531C22.9983 22.4675 22.9528 22.5773 22.8719 22.6582C22.791 22.7391 22.6813 22.7845 22.5669 22.7845ZM14.8022 21.9218H22.1355V16.3139H14.8022V21.9218Z" fill="#242424"/>
<path d="M5.31507 14.157C4.88848 14.157 4.47147 14.0305 4.11678 13.7935C3.76208 13.5565 3.48563 13.2196 3.32239 12.8255C3.15914 12.4314 3.11642 11.9977 3.19965 11.5793C3.28287 11.161 3.48829 10.7766 3.78993 10.475C4.09158 10.1734 4.47589 9.96793 4.89428 9.88471C5.31267 9.80148 5.74635 9.8442 6.14046 10.0074C6.53458 10.1707 6.87143 10.4471 7.10843 10.8018C7.34543 11.1565 7.47193 11.5735 7.47193 12.0001C7.47193 12.5722 7.24469 13.1208 6.8402 13.5253C6.43571 13.9297 5.8871 14.157 5.31507 14.157ZM5.31507 10.706C5.05911 10.706 4.80891 10.7819 4.59609 10.9241C4.38328 11.0663 4.21741 11.2684 4.11946 11.5049C4.02151 11.7414 3.99588 12.0016 4.04582 12.2526C4.09575 12.5036 4.219 12.7342 4.39999 12.9152C4.58097 13.0962 4.81156 13.2194 5.0626 13.2694C5.31363 13.3193 5.57384 13.2937 5.8103 13.1957C6.04677 13.0978 6.24889 12.9319 6.39109 12.7191C6.53329 12.5063 6.60918 12.2561 6.60918 12.0001C6.60918 11.6569 6.47284 11.3277 6.23015 11.085C5.98745 10.8424 5.65829 10.706 5.31507 10.706Z" fill="#242424"/>
<path d="M11.7838 14.157C11.3572 14.157 10.9402 14.0305 10.5855 13.7935C10.2308 13.5565 9.95438 13.2196 9.79114 12.8255C9.62789 12.4314 9.58517 11.9977 9.6684 11.5793C9.75162 11.161 9.95704 10.7766 10.2587 10.475C10.5603 10.1734 10.9446 9.96793 11.363 9.88471C11.7814 9.80148 12.2151 9.8442 12.6092 10.0074C13.0033 10.1707 13.3402 10.4471 13.5772 10.8018C13.8142 11.1565 13.9407 11.5735 13.9407 12.0001C13.9407 12.5722 13.7134 13.1208 13.3089 13.5253C12.9045 13.9297 12.3559 14.157 11.7838 14.157ZM11.7838 10.706C11.5279 10.706 11.2777 10.7819 11.0648 10.9241C10.852 11.0663 10.6862 11.2684 10.5882 11.5049C10.4903 11.7414 10.4646 12.0016 10.5146 12.2526C10.5645 12.5036 10.6878 12.7342 10.8687 12.9152C11.0497 13.0962 11.2803 13.2194 11.5313 13.2694C11.7824 13.3193 12.0426 13.2937 12.2791 13.1957C12.5155 13.0978 12.7176 12.9319 12.8598 12.7191C13.002 12.5063 13.0779 12.2561 13.0779 12.0001C13.0779 11.6569 12.9416 11.3277 12.6989 11.085C12.4562 10.8424 12.127 10.706 11.7838 10.706Z" fill="#242424"/>
<path d="M18.2526 14.157C17.826 14.157 17.409 14.0305 17.0543 13.7935C16.6996 13.5565 16.4231 13.2196 16.2599 12.8255C16.0966 12.4314 16.0539 11.9977 16.1371 11.5793C16.2204 11.161 16.4258 10.7766 16.7274 10.475C17.0291 10.1734 17.4134 9.96793 17.8318 9.88471C18.2502 9.80148 18.6838 9.8442 19.078 10.0074C19.4721 10.1707 19.8089 10.4471 20.0459 10.8018C20.2829 11.1565 20.4094 11.5735 20.4094 12.0001C20.4094 12.5722 20.1822 13.1208 19.7777 13.5253C19.3732 13.9297 18.8246 14.157 18.2526 14.157ZM18.2526 10.706C17.9966 10.706 17.7464 10.7819 17.5336 10.9241C17.3208 11.0663 17.1549 11.2684 17.057 11.5049C16.959 11.7414 16.9334 12.0016 16.9833 12.2526C17.0332 12.5036 17.1565 12.7342 17.3375 12.9152C17.5185 13.0962 17.7491 13.2194 18.0001 13.2694C18.2511 13.3193 18.5113 13.2937 18.7478 13.1957C18.9843 13.0978 19.1864 12.9319 19.3286 12.7191C19.4708 12.5063 19.5467 12.2561 19.5467 12.0001C19.5467 11.6569 19.4103 11.3277 19.1676 11.085C18.925 10.8424 18.5958 10.706 18.2526 10.706Z" fill="#242424"/>
<path d="M11.7849 10.7061C11.6705 10.7061 11.5608 10.6607 11.4799 10.5798C11.399 10.4989 11.3535 10.3892 11.3535 10.2748V8.1179C11.3535 8.00349 11.399 7.89377 11.4799 7.81287C11.5608 7.73197 11.6705 7.68652 11.7849 7.68652C11.8993 7.68652 12.009 7.73197 12.0899 7.81287C12.1708 7.89377 12.2163 8.00349 12.2163 8.1179V10.2748C12.2163 10.3892 12.1708 10.4989 12.0899 10.5798C12.009 10.6607 11.8993 10.7061 11.7849 10.7061Z" fill="#242424"/>
<path d="M5.31614 16.3136C5.20173 16.3136 5.09201 16.2681 5.01111 16.1872C4.93021 16.1063 4.88477 15.9966 4.88477 15.8822V13.7253C4.88477 13.6109 4.93021 13.5012 5.01111 13.4203C5.09201 13.3394 5.20173 13.2939 5.31614 13.2939C5.43055 13.2939 5.54027 13.3394 5.62116 13.4203C5.70206 13.5012 5.74751 13.6109 5.74751 13.7253V15.8822C5.74751 15.9966 5.70206 16.1063 5.62116 16.1872C5.54027 16.2681 5.43055 16.3136 5.31614 16.3136Z" fill="#242424"/>
<path d="M18.2615 16.3136C18.147 16.3136 18.0373 16.2681 17.9564 16.1872C17.8755 16.1063 17.8301 15.9966 17.8301 15.8822V13.7253C17.8301 13.6109 17.8755 13.5012 17.9564 13.4203C18.0373 13.3394 18.147 13.2939 18.2615 13.2939C18.3759 13.2939 18.4856 13.3394 18.5665 13.4203C18.6474 13.5012 18.6928 13.6109 18.6928 13.7253V15.8822C18.6928 15.9966 18.6474 16.1063 18.5665 16.1872C18.4856 16.2681 18.3759 16.3136 18.2615 16.3136Z" fill="#242424"/>
<path d="M16.5372 12.4316H13.949C13.8345 12.4316 13.7248 12.3861 13.6439 12.3052C13.563 12.2243 13.5176 12.1146 13.5176 12.0002C13.5176 11.8858 13.563 11.7761 13.6439 11.6952C13.7248 11.6143 13.8345 11.5688 13.949 11.5688H16.5372C16.6516 11.5688 16.7613 11.6143 16.8422 11.6952C16.9231 11.7761 16.9686 11.8858 16.9686 12.0002C16.9686 12.1146 16.9231 12.2243 16.8422 12.3052C16.7613 12.3861 16.6516 12.4316 16.5372 12.4316Z" fill="#242424"/>
<path d="M10.0623 12.4316H7.0427C6.92829 12.4316 6.81857 12.3861 6.73767 12.3052C6.65678 12.2243 6.61133 12.1146 6.61133 12.0002C6.61133 11.8858 6.65678 11.7761 6.73767 11.6952C6.81857 11.6143 6.92829 11.5688 7.0427 11.5688H10.0623C10.1767 11.5688 10.2864 11.6143 10.3673 11.6952C10.4482 11.7761 10.4937 11.8858 10.4937 12.0002C10.4937 12.1146 10.4482 12.2243 10.3673 12.3052C10.2864 12.3861 10.1767 12.4316 10.0623 12.4316Z" fill="#242424"/>
</svg>
