<svg width="24" height="24" viewBox="0 0 24 24" fill="none" xmlns="http://www.w3.org/2000/svg">
<path d="M9.16767 7.80859C8.93604 7.60012 8.56543 7.60012 8.35697 7.83175L4.7667 11.6305C4.55823 11.8621 4.55823 12.2096 4.7667 12.418L8.35697 16.2168C8.47278 16.3326 8.63492 16.4021 8.7739 16.4021C8.91288 16.4021 9.05186 16.3558 9.16767 16.2399C9.3993 16.0315 9.3993 15.6609 9.19084 15.4292L5.99434 12.0243L9.19084 8.61929C9.42247 8.38766 9.3993 8.01706 9.16767 7.80859ZM15.5838 7.83175C15.3754 7.60012 15.0048 7.60012 14.7731 7.80859C14.5415 8.01706 14.5415 8.38766 14.75 8.61929L17.9465 12.0243L14.75 15.4292C14.5415 15.6609 14.5415 16.0315 14.7731 16.2399C14.8889 16.3558 15.0279 16.4021 15.1669 16.4021C15.329 16.4021 15.468 16.3326 15.5838 16.2168L19.1741 12.418C19.3826 12.1864 19.3826 11.839 19.1741 11.6305L15.5838 7.83175ZM13.0127 7.71594C12.7116 7.64645 12.3873 7.83176 12.3178 8.13288L10.5111 15.6145C10.4416 15.9157 10.6269 16.2399 10.9281 16.3094C10.9744 16.3094 11.0207 16.3326 11.067 16.3326C11.3218 16.3326 11.5766 16.1473 11.623 15.8925L13.4297 8.41083C13.5223 8.10971 13.3139 7.78543 13.0127 7.71594ZM21.8147 7.50747C21.4441 6.37248 20.8187 5.56177 19.9153 5.05219C18.9425 4.47311 17.9696 3.9172 16.9968 3.36129C16.0239 2.80538 15.0511 2.24946 14.0782 1.67038C13.4528 1.32294 12.8274 1.13763 12.1325 1.11447C11.2987 1.09131 10.5806 1.25345 9.95522 1.62406C9.39931 1.94834 8.84339 2.24946 8.31064 2.57375C6.92086 3.36129 5.48475 4.19515 4.0718 5.02902C2.72835 5.83973 2.01029 7.09053 2.01029 8.61929C1.98713 10.1249 2.01029 11.6537 2.01029 13.1361C2.01029 13.8773 2.01029 14.6417 2.01029 15.3829C2.01029 15.823 2.07978 16.2399 2.1956 16.5874C2.56621 17.6529 3.19161 18.4636 4.0718 18.9732C5.02149 19.5291 5.99434 20.085 6.96718 20.6409C7.94003 21.1968 8.91288 21.7527 9.86256 22.3087C10.4416 22.6561 11.0439 22.8414 11.7388 22.8877C11.8546 22.8877 11.9704 22.8877 12.0631 22.8877C12.8043 22.8877 13.476 22.7024 14.0782 22.355C15.9776 21.2432 17.9465 20.085 19.8922 18.9732C20.5176 18.6257 21.0272 18.1393 21.3978 17.4907C21.8147 16.7727 22 16.1705 22 15.5219V8.59614C21.9768 8.27185 21.9305 7.87808 21.8147 7.50747ZM20.8187 15.5682C20.8187 15.9851 20.6797 16.4252 20.3554 16.958C20.1006 17.4213 19.7532 17.7687 19.2899 18.0235C17.3211 19.1353 15.3522 20.2935 13.4528 21.4053C12.9664 21.6833 12.4337 21.7991 11.7851 21.7759C11.2755 21.7296 10.8354 21.5906 10.4185 21.3358C9.44563 20.7799 8.49595 20.224 7.5231 19.6681C6.55025 19.1122 5.60057 18.5562 4.62772 18.0003C3.97915 17.6297 3.53905 17.0738 3.2611 16.2399C3.16845 16.0083 3.12212 15.7304 3.12212 15.4061C3.12212 14.6649 3.12212 13.9005 3.12212 13.1593C3.12212 11.6768 3.12212 10.1481 3.12212 8.64246C3.12212 7.48431 3.60855 6.65044 4.62772 6.02504C6.0175 5.19117 7.45361 4.38046 8.84339 3.56975C9.3993 3.24547 9.95522 2.94435 10.5111 2.62007C10.9281 2.36527 11.3682 2.24946 11.9241 2.24946C11.9704 2.24946 12.0167 2.24946 12.0631 2.24946C12.5726 2.27262 13.0359 2.4116 13.476 2.6664C14.4488 3.24547 15.4217 3.80138 16.3945 4.3573C17.3674 4.91321 18.3402 5.46913 19.3131 6.0482C19.9617 6.41881 20.4018 6.99788 20.6797 7.85492C20.7492 8.08655 20.7955 8.3645 20.7955 8.64246V15.5682H20.8187Z" fill="#242424"/>
</svg>
